<?xml version="1.0" encoding="UTF-8"?>
<svg id="Layer_2" xmlns="http://www.w3.org/2000/svg" viewBox="0 0 446.9 147.27">
  <defs>
    <style>
      .cls-1 {
        fill: #f1be49;
      }

      .cls-2 {
        fill: #fc9e4f;
        font-family: Bungee-Regular, Bungee;
        font-size: 20.19px;
      }

      .cls-3 {
        letter-spacing: -.07em;
      }

      .cls-4 {
        letter-spacing: -.01em;
      }
    </style>
  </defs>
  <g id="Layer_1-2" data-name="Layer_1">
    <g>
      <path class="cls-1" d="M30.66,2.39c5.95,0,10.52,1.4,13.71,4.22,3.19,2.81,5.56,7.5,7.11,14.05l14.1,58.32c.43.47,1.08.7,1.94.7.52,0,.99-.21,1.42-.63.43-.42.65-.96.65-1.62,0-.75-.17-1.73-.52-2.95l-13.19-55.93c-.43-1.69-1.03-3.51-1.81-5.48-.78-1.97-1.55-3.51-2.33-4.64-.78-1.12-1.25-1.87-1.42-2.25-.17-.37-.26-.84-.26-1.41v-.98c0-.93.56-1.4,1.68-1.4h41.78c1.72,0,3.04.45,3.94,1.33.91.89,1.36,2.13,1.36,3.72,0,3.47-2.57,13.56-7.7,30.29-5.13,16.72-10.84,33.52-17.14,50.38-.95,2.72-2.31,4.69-4.07,5.9-1.77,1.22-4.07,1.83-6.92,1.83h-18.76c-2.85,0-5.15-.61-6.92-1.83-1.77-1.22-3.13-3.18-4.07-5.9L7.37,14.05c-.52-1.5-1.23-2.74-2.13-3.72s-2.44-2.18-4.59-3.58c-.43-.28-.65-.7-.65-1.27v-1.69c0-.93.52-1.4,1.55-1.4h29.1Z"/>
      <path class="cls-1" d="M145.13,90.92c0,1.78-.32,3.04-.97,3.79-.65.75-1.75,1.12-3.3,1.12h-26.13c-1.55,0-2.65-.37-3.3-1.12-.65-.75-.97-2.01-.97-3.79V18.41c0-2.34-.17-4.05-.52-5.13-.35-1.08-.95-2.06-1.81-2.95-.86-.89-2.33-2.08-4.4-3.58-.43-.28-.65-.7-.65-1.27v-1.69c0-.93.52-1.4,1.55-1.4h36.22c1.55,0,2.65.38,3.3,1.12.65.75.97,2.02.97,3.79v83.62Z"/>
      <path class="cls-1" d="M201.91,7.03c-5.61,0-10.31,2.01-14.1,6.04-3.8,4.03-5.69,8.99-5.69,14.9,0,7.4,2.48,13.49,7.44,18.27,4.96,4.78,11.32,7.17,19.08,7.17,4.57,0,8.86-.94,12.87-2.81,4.01-1.87,7.31-4.45,9.9-7.73.52-.65.91-1.1,1.16-1.33.26-.23.56-.35.91-.35h1.94c.6,0,1.06.26,1.36.77.3.52.58,1.52.84,3.02.34,1.87.52,3.98.52,6.32,0,8.71-1.68,16.61-5.05,23.68-3.36,7.07-8.11,12.72-14.23,16.93-6.12,4.22-13.15,6.32-21.08,6.32s-15.33-2.06-21.92-6.18c-6.6-4.12-11.86-10.02-15.78-17.71-3.93-7.68-5.89-16.44-5.89-26.28,0-9.18,1.77-17.4,5.3-24.66,3.54-7.26,8.58-12.97,15.13-17.14,6.55-4.17,14.14-6.25,22.77-6.25,6.47,0,12.29,1.15,17.46,3.44,5.17,2.3,9.29,5.55,12.35,9.77,3.06,4.22,4.59,9.04,4.59,14.47,0,6.28-2.07,11.31-6.21,15.11-4.14,3.79-9.62,5.69-16.43,5.69-4.14,0-7.91-.86-11.32-2.6-3.41-1.73-6.12-4.17-8.15-7.31-2.03-3.14-3.04-6.72-3.04-10.75,0-5.06,1.59-9.09,4.79-12.09,3.19-3,7.5-4.5,12.94-4.5.52-.56.78-1.17.78-1.83,0-.75-.3-1.33-.91-1.76-.6-.42-1.38-.63-2.33-.63Z"/>
      <path class="cls-1" d="M280.43,90.92c0,1.78-.32,3.04-.97,3.79-.65.75-1.75,1.12-3.3,1.12h-26.13c-1.55,0-2.65-.37-3.3-1.12-.65-.75-.97-2.01-.97-3.79V18.41c0-2.34-.17-4.05-.52-5.13-.34-1.08-.95-2.06-1.81-2.95-.86-.89-2.33-2.08-4.4-3.58-.43-.28-.65-.7-.65-1.27v-1.69c0-.93.52-1.4,1.55-1.4h36.22c1.55,0,2.65.38,3.3,1.12.65.75.97,2.02.97,3.79v83.62Z"/>
      <path class="cls-1" d="M358.68,72.09h-4.79l3.75,15.74c.52,2.16.78,3.65.78,4.5,0,2.34-1.34,3.51-4.01,3.51h-33.76c-1.73,0-3.04-.44-3.95-1.33-.91-.89-1.36-2.13-1.36-3.72,0-2.16,1.98-8.71,5.95-19.67,3.97-10.96,10.69-28.43,20.18-52.42.52-1.31.78-2.48.78-3.51,0-1.59-.37-2.95-1.1-4.08-.73-1.12-2.09-2.39-4.07-3.79-.86-.56-1.29-1.17-1.29-1.83v-1.69c0-.93.52-1.4,1.55-1.4h30.01c2.85,0,5.15.61,6.92,1.83,1.77,1.22,3.13,3.19,4.07,5.9l24.96,71.39c1.64,4.59,2.46,7.87,2.46,9.84,0,3-1.42,4.5-4.27,4.5h-32.47c-1.81,0-3.13-.42-3.94-1.26-.82-.84-1.53-2.53-2.14-5.06l-4.27-17.42ZM352.34,65.49h4.79l-9.06-37.8c-.43-.47-.99-.7-1.68-.7s-1.25.21-1.68.63c-.43.42-.65.96-.65,1.62,0,.37.04.8.13,1.26.08.47.21,1.03.39,1.69l7.76,33.3Z"/>
      <path class="cls-1" d="M446.9,90.92c0,1.78-.32,3.04-.97,3.79-.65.75-1.75,1.12-3.3,1.12h-26.13c-1.55,0-2.65-.37-3.3-1.12-.65-.75-.97-2.01-.97-3.79V18.41c0-2.34-.17-4.05-.52-5.13-.34-1.08-.95-2.06-1.81-2.95-.86-.89-2.33-2.08-4.4-3.58-.43-.28-.65-.7-.65-1.27v-1.69c0-.93.52-1.4,1.55-1.4h36.22c1.55,0,2.65.38,3.3,1.12.65.75.97,2.02.97,3.79v83.62Z"/>
    </g>
    <text class="cls-2" transform="translate(62.2 128.8)"><tspan x="0" y="0">Optimizing</tspan><tspan class="cls-4" x="138.48" y="0"> </tspan><tspan x="142.82" y="0">your gu</tspan><tspan class="cls-4" x="235.89" y="0">t</tspan><tspan x="248.93" y="0" xml:space="preserve"> hea</tspan><tspan class="cls-3" x="296.73" y="0">l</tspan><tspan x="309.35" y="0">th</tspan></text>
  </g>
</svg>